<svg xmlns="http://www.w3.org/2000/svg" xmlns:xlink="http://www.w3.org/1999/xlink" xmlns:fi="http://pattern.flaticon.com/" x="0" y="0" width="3000" height="1500" viewBox="0 0 7000 3500"><rect x="0px" y="0px" width="100%" height="100%" opacity="1" fill="#ffffff"/><defs><g transform="matrix(0.1782008707523346 0 0 0.1782008707523346 266.84038187248484 265.85078029334545)" id="L1_0"><path d="M387.917,423.53V15.955c4.022-0.421,7.158-3.821,7.158-7.955c0-4.418-3.582-8-8-8H52.425c-4.418,0-8,3.582-8,8   c0,4.331,3.444,7.849,7.741,7.987V423.5c-4.418,0-8,3.582-8,8s3.582,8,8,8h335.167c4.418,0,8-3.582,8-8   C395.333,427.278,392.061,423.829,387.917,423.53z M68.167,16h303.75v407.5H164v-95.917c0-4.418-3.582-8-8-8H92.375   c-4.418,0-8,3.582-8,8V423.5H68.167V16z M100.375,383.351c1.976-0.095,3.881-0.92,5.282-2.321c1.489-1.49,2.34-3.55,2.34-5.65   c0-2.11-0.851-4.17-2.34-5.66c-1.401-1.4-3.307-2.226-5.282-2.321v-31.815H148V423.5h-47.625V383.351z" fill="#536fd4"/><path d="M188.5,391.25h64c4.418,0,8-3.582,8-8v-55.667c0-4.418-3.582-8-8-8h-64c-4.418,0-8,3.582-8,8v55.667   C180.5,387.668,184.082,391.25,188.5,391.25z M244.5,375.25h-16v-39.667h16V375.25z M196.5,335.583h16v39.667h-16V335.583z" fill="#536fd4"/><path d="M284.75,391.25h64c4.418,0,8-3.582,8-8v-55.667c0-4.418-3.582-8-8-8h-64c-4.418,0-8,3.582-8,8v55.667   C276.75,387.668,280.332,391.25,284.75,391.25z M340.75,375.25h-16v-39.667h16V375.25z M292.75,335.583h16v39.667h-16V335.583z" fill="#536fd4"/><path d="M188.5,295.25h64c4.418,0,8-3.582,8-8v-55.667c0-4.418-3.582-8-8-8h-64c-4.418,0-8,3.582-8,8v55.667   C180.5,291.668,184.082,295.25,188.5,295.25z M244.5,279.25h-16v-39.667h16V279.25z M196.5,239.583h16v39.667h-16V239.583z" fill="#536fd4"/><path d="M92.187,295.25h64c4.418,0,8-3.582,8-8v-55.667c0-4.418-3.582-8-8-8h-64c-4.418,0-8,3.582-8,8v55.667   C84.187,291.668,87.769,295.25,92.187,295.25z M148.187,279.25h-16v-39.667h16V279.25z M100.187,239.583h16v39.667h-16V239.583z" fill="#536fd4"/><path d="M284.75,295.25h64c4.418,0,8-3.582,8-8v-55.667c0-4.418-3.582-8-8-8h-64c-4.418,0-8,3.582-8,8v55.667   C276.75,291.668,280.332,295.25,284.75,295.25z M340.75,279.25h-16v-39.667h16V279.25z M292.75,239.583h16v39.667h-16V239.583z" fill="#536fd4"/><path d="M188.5,199.583h64c4.418,0,8-3.582,8-8v-55.667c0-4.418-3.582-8-8-8h-64c-4.418,0-8,3.582-8,8v55.667   C180.5,196.002,184.082,199.583,188.5,199.583z M244.5,183.583h-16v-39.667h16V183.583z M196.5,143.917h16v39.667h-16V143.917z" fill="#536fd4"/><path d="M92.187,199.583h64c4.418,0,8-3.582,8-8v-55.667c0-4.418-3.582-8-8-8h-64c-4.418,0-8,3.582-8,8v55.667   C84.187,196.002,87.769,199.583,92.187,199.583z M148.187,183.583h-16v-39.667h16V183.583z M100.187,143.917h16v39.667h-16V143.917   z" fill="#536fd4"/><path d="M284.75,199.583h64c4.418,0,8-3.582,8-8v-55.667c0-4.418-3.582-8-8-8h-64c-4.418,0-8,3.582-8,8v55.667   C276.75,196.002,280.332,199.583,284.75,199.583z M340.75,183.583h-16v-39.667h16V183.583z M292.75,143.917h16v39.667h-16V143.917z   " fill="#536fd4"/><path d="M188.5,103.583h64c4.418,0,8-3.582,8-8V39.917c0-4.418-3.582-8-8-8h-64c-4.418,0-8,3.582-8,8v55.667   C180.5,100.001,184.082,103.583,188.5,103.583z M244.5,87.583h-16V47.917h16V87.583z M196.5,47.917h16v39.667h-16V47.917z" fill="#536fd4"/><path d="M92.187,103.583h64c4.418,0,8-3.582,8-8V39.917c0-4.418-3.582-8-8-8h-64c-4.418,0-8,3.582-8,8v55.667   C84.187,100.001,87.769,103.583,92.187,103.583z M148.187,87.583h-16V47.917h16V87.583z M100.187,47.917h16v39.667h-16V47.917z" fill="#536fd4"/><path d="M284.75,103.583h64c4.418,0,8-3.582,8-8V39.917c0-4.418-3.582-8-8-8h-64c-4.418,0-8,3.582-8,8v55.667   C276.75,100.001,280.332,103.583,284.75,103.583z M340.75,87.583h-16V47.917h16V87.583z M292.75,47.917h16v39.667h-16V47.917z" fill="#536fd4"/></g><g transform="matrix(0.17693030834197998 0 0 0.17693030834197998 88.06425111863996 181.06681287288666)" id="L1_1"><path d="M328.563,424.125h-9V48c0-4.418-3.582-8-8-8H199.896V24c0-4.418-3.582-8-8-8s-8,3.582-8,8v16h-16V8c0-4.418-3.582-8-8-8   s-8,3.582-8,8v32h-24.333c-4.418,0-8,3.582-8,8v376.125h-8c-4.418,0-8,3.582-8,8s3.582,8,8,8h16h184h17c4.418,0,8-3.582,8-8   S332.981,424.125,328.563,424.125z M135.563,424.125V408.5h96.667c4.418,0,8-3.582,8-8s-3.582-8-8-8h-96.667v-16h96.667   c4.418,0,8-3.582,8-8s-3.582-8-8-8h-96.667v-16h96.667c4.418,0,8-3.582,8-8s-3.582-8-8-8h-96.667v-16h96.667c4.418,0,8-3.582,8-8   s-3.582-8-8-8h-96.667v-16.167h96.667c4.418,0,8-3.582,8-8s-3.582-8-8-8h-96.667v-16h96.667c4.418,0,8-3.582,8-8s-3.582-8-8-8   h-96.667v-16h96.667c4.418,0,8-3.582,8-8s-3.582-8-8-8h-96.667v-16h96.667c4.418,0,8-3.582,8-8s-3.582-8-8-8h-96.667V152.5h96.667   c4.418,0,8-3.582,8-8s-3.582-8-8-8h-96.667v-16h96.667c4.418,0,8-3.582,8-8s-3.582-8-8-8h-96.667v-16h96.667c4.418,0,8-3.582,8-8   s-3.582-8-8-8h-96.667V56h168v16.5h-15.667c-4.418,0-8,3.582-8,8s3.582,8,8,8h15.667v16h-15.667c-4.418,0-8,3.582-8,8s3.582,8,8,8   h15.667v16h-15.667c-4.418,0-8,3.582-8,8s3.582,8,8,8h15.667v15.833h-15.667c-4.418,0-8,3.582-8,8s3.582,8,8,8h15.667v16h-15.667   c-4.418,0-8,3.582-8,8s3.582,8,8,8h15.667v16h-15.667c-4.418,0-8,3.582-8,8s3.582,8,8,8h15.667v16h-15.667c-4.418,0-8,3.582-8,8   s3.582,8,8,8h15.667V296.5h-15.667c-4.418,0-8,3.582-8,8s3.582,8,8,8h15.667v16h-15.667c-4.418,0-8,3.582-8,8s3.582,8,8,8h15.667   v16h-15.667c-4.418,0-8,3.582-8,8s3.582,8,8,8h15.667v16h-15.667c-4.418,0-8,3.582-8,8s3.582,8,8,8h15.667v15.625H135.563z" fill="#536fd4"/><path d="M263.896,392.5h-8c-4.418,0-8,3.582-8,8s3.582,8,8,8h8c4.418,0,8-3.582,8-8S268.314,392.5,263.896,392.5z" fill="#536fd4"/><path d="M263.896,360.5h-8c-4.418,0-8,3.582-8,8s3.582,8,8,8h8c4.418,0,8-3.582,8-8S268.314,360.5,263.896,360.5z" fill="#536fd4"/><path d="M263.896,328.5h-8c-4.418,0-8,3.582-8,8s3.582,8,8,8h8c4.418,0,8-3.582,8-8S268.314,328.5,263.896,328.5z" fill="#536fd4"/><path d="M263.896,296.5h-8c-4.418,0-8,3.582-8,8s3.582,8,8,8h8c4.418,0,8-3.582,8-8S268.314,296.5,263.896,296.5z" fill="#536fd4"/><path d="M263.896,264.333h-8c-4.418,0-8,3.582-8,8s3.582,8,8,8h8c4.418,0,8-3.582,8-8S268.314,264.333,263.896,264.333z" fill="#536fd4"/><path d="M263.896,232.333h-8c-4.418,0-8,3.582-8,8s3.582,8,8,8h8c4.418,0,8-3.582,8-8S268.314,232.333,263.896,232.333z" fill="#536fd4"/><path d="M263.896,200.333h-8c-4.418,0-8,3.582-8,8s3.582,8,8,8h8c4.418,0,8-3.582,8-8S268.314,200.333,263.896,200.333z" fill="#536fd4"/><path d="M263.896,168.333h-8c-4.418,0-8,3.582-8,8s3.582,8,8,8h8c4.418,0,8-3.582,8-8S268.314,168.333,263.896,168.333z" fill="#536fd4"/><path d="M263.896,136.5h-8c-4.418,0-8,3.582-8,8s3.582,8,8,8h8c4.418,0,8-3.582,8-8S268.314,136.5,263.896,136.5z" fill="#536fd4"/><path d="M263.896,104.5h-8c-4.418,0-8,3.582-8,8s3.582,8,8,8h8c4.418,0,8-3.582,8-8S268.314,104.5,263.896,104.5z" fill="#536fd4"/><path d="M263.896,72.5h-8c-4.418,0-8,3.582-8,8s3.582,8,8,8h8c4.418,0,8-3.582,8-8S268.314,72.5,263.896,72.5z" fill="#536fd4"/></g><path d="M324.01,456.125V416c0-4.418-3.582-8-8-8h-8.062V232.75c0-2.122-0.843-4.157-2.343-5.657l-29.99-29.991v-45.014  c0-0.266-0.014-0.532-0.04-0.797c-0.01-0.108-0.031-0.212-0.046-0.319c-0.021-0.152-0.04-0.304-0.07-0.455  c-0.025-0.126-0.06-0.249-0.091-0.373c-0.032-0.129-0.061-0.259-0.099-0.387c-0.037-0.123-0.083-0.241-0.126-0.361  c-0.045-0.126-0.087-0.254-0.138-0.378c-0.046-0.111-0.101-0.217-0.151-0.326c-0.06-0.129-0.117-0.258-0.185-0.384  c-0.055-0.103-0.118-0.2-0.177-0.3c-0.074-0.124-0.144-0.249-0.225-0.37c-0.073-0.11-0.155-0.213-0.234-0.318  c-0.077-0.104-0.149-0.209-0.232-0.31c-0.149-0.181-0.307-0.353-0.47-0.52c-0.02-0.021-0.037-0.043-0.058-0.064l-29.647-29.647  V55.75c0-4.418-3.582-8-8-8h-40.01V8c0-4.418-3.582-8-8-8s-8,3.582-8,8v39.75h-8c-4.418,0-8,3.582-8,8V408h-7.5  c-4.418,0-8,3.582-8,8v40.125c-4.418,0-8,3.582-8,8s3.582,8,8,8h8H316.01h8c4.418,0,8-3.582,8-8S328.428,456.125,324.01,456.125z   M291.948,236.063V408h-16.333V219.73L291.948,236.063z M259.615,155.397V408h-15.99V139.407L259.615,155.397z M211.605,408V63.75  h16.02V408H211.605z M179.615,63.75h15.99V408h-15.99V63.75z M275.615,456.125V448c0-4.418-3.582-8-8-8s-8,3.582-8,8v8.125h-15.553  V448c0-4.418-3.582-8-8-8s-8,3.582-8,8v8.125h-16.457V448c0-4.418-3.582-8-8-8s-8,3.582-8,8v8.125h-31.49V424H308.01v32.125H275.615  z" transform="matrix(0.20415271818637848 0 0 0.20415271818637848 85.80715789414 -14.187984943389893)" id="L1_2" fill="#536fd4"/><g transform="matrix(0.19469894468784332 0 0 0.19469894468784332 255.9392647743225 80.93697506074193)" id="L1_3"><path d="M63.833,317.583H72.5h55.583h7.334c4.418,0,8-3.582,8-8c0-4.193-3.228-7.627-7.334-7.966v-71.95c0-4.418-3.582-8-8-8H72.5   c-4.418,0-8,3.582-8,8v71.917h-0.667c-4.418,0-8,3.582-8,8S59.415,317.583,63.833,317.583z M120.083,237.666v23.958H80.5v-23.958   H120.083z M80.5,277.625h39.583v23.958H80.5V277.625z" fill="#536fd4"/><path d="M192.58,317.586c2.109,0,4.17-0.86,5.66-2.35c1.489-1.49,2.34-3.55,2.34-5.65c0-2.11-0.851-4.17-2.34-5.66   c-1.49-1.49-3.551-2.34-5.66-2.34c-2.101,0-4.17,0.85-5.65,2.34c-1.49,1.49-2.35,3.55-2.35,5.66c0,2.1,0.859,4.17,2.35,5.65   C188.41,316.726,190.479,317.586,192.58,317.586z" fill="#536fd4"/><path d="M296.292,317.583h8.666h55.584h7.333c4.418,0,8-3.582,8-8c0-4.193-3.228-7.627-7.333-7.966v-71.95c0-4.418-3.582-8-8-8   h-55.584c-4.418,0-8,3.582-8,8v71.917h-0.666c-4.418,0-8,3.582-8,8S291.874,317.583,296.292,317.583z M352.542,237.666v23.958   h-39.584v-23.958H352.542z M312.958,277.625h39.584v23.958h-39.584V277.625z" fill="#536fd4"/><path d="M424.083,382.166h-7.416V202.094H424c0.006,0,0.014,0,0.02,0c4.419,0,8-3.582,8-8c0-0.956-0.167-1.873-0.475-2.723   L399.951,79.001c-0.97-3.451-4.117-5.835-7.701-5.835h-31.708v-31.25c0-4.418-3.582-8-8-8h-47.584c-4.418,0-8,3.582-8,8v31.25   H39.75c-3.584,0-6.731,2.384-7.701,5.835L0.299,191.928c-0.678,2.411-0.188,5,1.324,6.996c1.513,1.996,3.873,3.169,6.377,3.169h8   v180.073H8.583c-4.418,0-8,3.582-8,8s3.582,8,8,8h415.5c4.418,0,8-3.582,8-8S428.501,382.166,424.083,382.166z M256,382.166h-79.5   v-144.5H256V382.166z M272,349.416h128.667v32.75H272V349.416z M312.958,49.916h31.584v23.25h-31.584V49.916z M45.81,89.166   h340.379l27.251,96.927H18.559L45.81,89.166z M400.667,202.094v131.323H272v-103.75c0-4.418-3.582-8-8-8h-95.5   c-4.418,0-8,3.582-8,8v103.75H32V202.094H400.667z M32,349.416h128.5v32.75H32V349.416z" fill="#536fd4"/></g></defs><g fi:class="KUsePattern"><pattern id="pattern_L1_0" width="350" height="350" patternUnits="userSpaceOnUse"><use xlink:href="#L1_0" x="-350" y="-350"/><use xlink:href="#L1_0" x="0" y="-350"/><use xlink:href="#L1_0" x="350" y="-350"/><use xlink:href="#L1_0" x="-350" y="0"/><use xlink:href="#L1_0" x="0" y="0"/><use xlink:href="#L1_0" x="350" y="0"/><use xlink:href="#L1_0" x="-350" y="350"/><use xlink:href="#L1_0" x="0" y="350"/><use xlink:href="#L1_0" x="350" y="350"/></pattern><rect x="0" y="0" width="100%" height="100%" fill="url(#pattern_L1_0)"/></g><g fi:class="KUsePattern"><pattern id="pattern_L1_1" width="350" height="350" patternUnits="userSpaceOnUse"><use xlink:href="#L1_1" x="-350" y="-350"/><use xlink:href="#L1_1" x="0" y="-350"/><use xlink:href="#L1_1" x="350" y="-350"/><use xlink:href="#L1_1" x="-350" y="0"/><use xlink:href="#L1_1" x="0" y="0"/><use xlink:href="#L1_1" x="350" y="0"/><use xlink:href="#L1_1" x="-350" y="350"/><use xlink:href="#L1_1" x="0" y="350"/><use xlink:href="#L1_1" x="350" y="350"/></pattern><rect x="0" y="0" width="100%" height="100%" fill="url(#pattern_L1_1)"/></g><g fi:class="KUsePattern"><pattern id="pattern_L1_2" width="350" height="350" patternUnits="userSpaceOnUse"><use xlink:href="#L1_2" x="-350" y="-350"/><use xlink:href="#L1_2" x="0" y="-350"/><use xlink:href="#L1_2" x="350" y="-350"/><use xlink:href="#L1_2" x="-350" y="0"/><use xlink:href="#L1_2" x="0" y="0"/><use xlink:href="#L1_2" x="350" y="0"/><use xlink:href="#L1_2" x="-350" y="350"/><use xlink:href="#L1_2" x="0" y="350"/><use xlink:href="#L1_2" x="350" y="350"/></pattern><rect x="0" y="0" width="100%" height="100%" fill="url(#pattern_L1_2)"/></g><g fi:class="KUsePattern"><pattern id="pattern_L1_3" width="350" height="350" patternUnits="userSpaceOnUse"><use xlink:href="#L1_3" x="-350" y="-350"/><use xlink:href="#L1_3" x="0" y="-350"/><use xlink:href="#L1_3" x="350" y="-350"/><use xlink:href="#L1_3" x="-350" y="0"/><use xlink:href="#L1_3" x="0" y="0"/><use xlink:href="#L1_3" x="350" y="0"/><use xlink:href="#L1_3" x="-350" y="350"/><use xlink:href="#L1_3" x="0" y="350"/><use xlink:href="#L1_3" x="350" y="350"/></pattern><rect x="0" y="0" width="100%" height="100%" fill="url(#pattern_L1_3)"/></g></svg>